<?xml version="1.0" encoding="UTF-8"?>
<svg id="Layer_2" data-name="Layer 2" xmlns="http://www.w3.org/2000/svg" viewBox="0 0 444.25 444.25">
  <defs>
    <style>
      .cls-1 {
        fill: none;
        stroke-width: 10px;
      }

      .cls-1, .cls-2 {
        stroke: #231f20;
        stroke-miterlimit: 10;
      }

      .cls-2 {
        fill: #231f20;
        stroke-width: 3px;
      }
    </style>
  </defs>
  <g id="Layer_1-2" data-name="Layer 1">
    <path class="cls-2" d="M232.98,145.63v-69.13c0-10.12-1.56-17.17-4.69-21.14-3.13-3.97-7.11-5.96-11.95-5.96-8.91,0-17.19,4.92-24.84,14.76-10.47,13.43-15.7,29.36-15.7,47.79,0,4.05.39,6.85,1.17,8.41.47.78,1.09,1.17,1.87,1.17.93,0,2.64-1.01,5.13-3.03,4.2-3.58,8.09-5.37,11.67-5.37,4.82,0,9.45,2.84,13.89,8.52,4.43,5.68,6.65,13.73,6.65,24.16s-1.98,17.9-5.95,22.87c-3.97,4.98-8.68,7.47-14.12,7.47-7,0-12.99-3.34-17.97-10.04-6.54-9.02-9.8-22.33-9.8-39.91,0-26.92,5.57-47.38,16.72-61.38,11.15-14,23.82-21.01,38.01-21.01,14.97,0,27.52,5.83,37.66,17.49,10.13,11.66,15.2,29.38,15.2,53.17,0,16.17-1.56,29.38-4.68,39.64-2.19,7.15-5.62,14.15-10.3,20.99-3.28,4.82-12.64,16.17-28.1,34.05-21.54,24.88-32.31,46.87-32.31,65.99,0,8.08,2.62,14.92,7.85,20.52,5.24,5.6,11.21,8.39,17.94,8.39s12.86-2.57,17.47-7.7c4.61-5.13,6.92-12.29,6.92-21.47,0-7.62-2.26-15.87-6.77-24.74-1.09-1.87-1.63-3.19-1.63-3.97l2.1-2.33c1.87,0,3.81,1.79,5.83,5.37,4.2,7,6.3,15.33,6.3,24.97,0,11.2-2.85,19.92-8.55,26.14-5.7,6.23-12.85,9.34-21.44,9.34s-16.05-3.42-22.37-10.26c-6.33-6.84-9.49-15.47-9.49-25.89,0-6.21.98-12.47,2.94-18.77,1.95-6.29,6.81-17.18,14.56-32.65,7.75-15.47,13.15-28.96,16.2-40.48,3.05-11.52,4.58-23.51,4.58-35.97ZM215.85,345.12c6.07,0,11.09,2.26,15.05,6.77,3.97,4.51,5.95,11.2,5.95,20.07,0,9.8-1.95,17-5.83,21.59-3.89,4.59-8.87,6.88-14.94,6.88s-11.09-2.33-15.05-7-5.95-11.51-5.95-20.54,2.02-15.91,6.07-20.66c4.04-4.75,8.95-7.12,14.7-7.12Z"/>
    <circle class="cls-1" cx="222.12" cy="222.12" r="217.12"/>
  </g>
</svg>