<?xml version="1.0" encoding="UTF-8"?>
<svg id="Layer_2" data-name="Layer 2" xmlns="http://www.w3.org/2000/svg" viewBox="0 0 444.25 444.25">
  <defs>
    <style>
      .cls-1 {
        fill: #1c75bc;
        stroke-width: 0px;
      }
    </style>
  </defs>
  <g id="Layer_1-2" data-name="Layer 1">
    <g>
      <path class="cls-1" d="M232.98,145.63v-69.13c0-10.12-1.56-17.17-4.69-21.14-3.13-3.97-7.11-5.96-11.95-5.96-8.91,0-17.19,4.92-24.84,14.76-10.47,13.43-15.7,29.36-15.7,47.79,0,4.05.39,6.85,1.17,8.41.47.78,1.09,1.17,1.87,1.17.93,0,2.64-1.01,5.13-3.03,4.2-3.58,8.09-5.37,11.67-5.37,4.82,0,9.45,2.84,13.89,8.52,4.43,5.68,6.65,13.73,6.65,24.16s-1.98,17.9-5.95,22.87c-3.97,4.98-8.68,7.47-14.12,7.47-7,0-12.99-3.34-17.97-10.04-6.54-9.02-9.8-22.33-9.8-39.91,0-26.92,5.57-47.38,16.72-61.38,11.15-14,23.82-21.01,38.01-21.01,14.97,0,27.52,5.83,37.66,17.49,10.13,11.66,15.2,29.38,15.2,53.17,0,16.17-1.56,29.38-4.68,39.64-2.19,7.15-5.62,14.15-10.3,20.99-3.28,4.82-12.64,16.17-28.1,34.05-21.54,24.88-32.31,46.87-32.31,65.99,0,8.08,2.62,14.92,7.85,20.52,5.24,5.6,11.21,8.39,17.94,8.39s12.86-2.57,17.47-7.7c4.61-5.13,6.92-12.29,6.92-21.47,0-7.62-2.26-15.87-6.77-24.74-1.09-1.87-1.63-3.19-1.63-3.97l2.1-2.33c1.87,0,3.81,1.79,5.83,5.37,4.2,7,6.3,15.33,6.3,24.97,0,11.2-2.85,19.92-8.55,26.14-5.7,6.23-12.85,9.34-21.44,9.34s-16.05-3.42-22.37-10.26c-6.33-6.84-9.49-15.47-9.49-25.89,0-6.21.98-12.47,2.94-18.77,1.95-6.29,6.81-17.18,14.56-32.65,7.75-15.47,13.15-28.96,16.2-40.48,3.05-11.52,4.58-23.51,4.58-35.97ZM215.85,345.12c6.07,0,11.09,2.26,15.05,6.77,3.97,4.51,5.95,11.2,5.95,20.07,0,9.8-1.95,17-5.83,21.59-3.89,4.59-8.87,6.88-14.94,6.88s-11.09-2.33-15.05-7-5.95-11.51-5.95-20.54,2.02-15.91,6.07-20.66c4.04-4.75,8.95-7.12,14.7-7.12Z"/>
      <path class="cls-1" d="M216.08,401.94c-6.5,0-11.95-2.53-16.2-7.53-4.19-4.92-6.31-12.16-6.31-21.51s2.16-16.63,6.43-21.63c4.32-5.07,9.65-7.65,15.85-7.65s11.93,2.45,16.18,7.28c4.2,4.77,6.33,11.86,6.33,21.06,0,10.12-2.08,17.71-6.19,22.56-4.17,4.92-9.58,7.42-16.08,7.42ZM215.85,346.62c-5.35,0-9.78,2.16-13.56,6.59-3.79,4.44-5.71,11.07-5.71,19.68s1.88,15.2,5.59,19.57c3.7,4.36,8.25,6.47,13.91,6.47s10.17-2.08,13.79-6.36c3.64-4.29,5.48-11.23,5.48-20.62,0-8.45-1.88-14.87-5.58-19.08-3.7-4.21-8.26-6.26-13.93-6.26ZM226.56,311.15c-8.99,0-16.89-3.61-23.48-10.74-6.56-7.09-9.89-16.15-9.89-26.91,0-6.34,1.01-12.81,3-19.22,1.97-6.33,6.9-17.4,14.65-32.87,7.67-15.3,13.08-28.83,16.09-40.2,3.01-11.35,4.53-23.32,4.53-35.58v-69.13c0-9.73-1.47-16.52-4.37-20.21-2.85-3.62-6.38-5.38-10.77-5.38-8.38,0-16.34,4.77-23.65,14.18-10.21,13.1-15.39,28.87-15.39,46.87,0,4.65.53,6.74.98,7.68.25.39.42.39.55.39.09,0,1.03-.13,4.19-2.7,4.44-3.78,8.69-5.7,12.62-5.7,5.29,0,10.36,3.06,15.07,9.1,4.62,5.93,6.97,14.36,6.97,25.08s-2.11,18.58-6.28,23.81c-4.25,5.33-9.39,8.03-15.29,8.03-7.47,0-13.92-3.58-19.18-10.64-6.71-9.26-10.1-22.98-10.1-40.81,0-27.14,5.74-48.11,17.05-62.32,11.39-14.31,24.58-21.57,39.18-21.57,15.35,0,28.4,6.06,38.79,18.01,10.33,11.89,15.57,30.11,15.57,54.15,0,16.24-1.6,29.73-4.75,40.08-2.22,7.27-5.76,14.47-10.5,21.4-3.29,4.84-12.78,16.34-28.2,34.18-21.2,24.48-31.94,46.35-31.94,65.01,0,7.65,2.51,14.21,7.45,19.49,4.99,5.33,10.5,7.92,16.84,7.92s12-2.36,16.35-7.2c4.34-4.83,6.54-11.72,6.54-20.47,0-7.35-2.22-15.44-6.61-24.06-1.23-2.1-1.8-3.56-1.8-4.65v-.58l2.93-3.26h.67c2.47,0,4.81,2,7.14,6.13,4.3,7.17,6.5,15.83,6.5,25.71,0,11.54-3.01,20.67-8.95,27.15-5.97,6.52-13.56,9.82-22.54,9.82ZM216.34,47.91c5.3,0,9.72,2.2,13.13,6.53,3.37,4.29,5.01,11.5,5.01,22.07v69.13c0,12.52-1.56,24.76-4.63,36.35-3.06,11.57-8.55,25.28-16.31,40.77-7.68,15.33-12.55,26.24-14.47,32.42-1.9,6.12-2.87,12.29-2.87,18.33,0,9.98,3.06,18.35,9.09,24.87,6,6.49,13.15,9.78,21.27,9.78s14.88-2.89,20.33-8.85c5.41-5.91,8.16-14.36,8.16-25.13,0-9.33-2.05-17.47-6.09-24.2-1.8-3.18-3.14-4.23-3.98-4.53l-1.07,1.19c.14.46.49,1.3,1.33,2.74,4.64,9.12,6.97,17.67,6.97,25.5,0,9.52-2.46,17.08-7.3,22.47-4.89,5.44-11.14,8.2-18.58,8.2s-13.53-2.98-19.03-8.87c-5.48-5.85-8.26-13.1-8.26-21.54,0-19.4,10.99-41.94,32.67-66.98,15.34-17.75,24.76-29.16,27.99-33.91,4.57-6.68,7.97-13.6,10.11-20.58,3.06-10.07,4.62-23.26,4.62-39.2,0-23.3-4.99-40.86-14.83-52.18-9.79-11.26-22.08-16.97-36.53-16.97-13.64,0-26.04,6.88-36.83,20.44-10.88,13.66-16.4,34-16.4,60.45,0,17.18,3.2,30.31,9.52,39.03,4.71,6.33,10.19,9.42,16.76,9.42,5.01,0,9.25-2.26,12.95-6.9,3.73-4.68,5.62-12.06,5.62-21.94s-2.13-17.85-6.33-23.23c-4.12-5.27-8.39-7.94-12.7-7.94-3.19,0-6.79,1.69-10.7,5.01-3.68,2.99-5.15,3.39-6.11,3.39s-2.22-.33-3.15-1.9l-.05-.1c-.89-1.78-1.33-4.75-1.33-9.08,0-18.69,5.39-35.07,16.02-48.71,7.91-10.18,16.67-15.34,26.02-15.34Z"/>
    </g>
    <path class="cls-1" d="M222.12,444.25c-59.33,0-115.11-23.1-157.06-65.06C23.1,337.23,0,281.46,0,222.12S23.1,107.01,65.06,65.06C107.01,23.1,162.79,0,222.12,0s115.11,23.1,157.06,65.06c41.95,41.95,65.06,97.73,65.06,157.06s-23.1,115.11-65.06,157.06c-41.95,41.95-97.73,65.06-157.06,65.06ZM222.12,10C105.16,10,10,105.16,10,222.12s95.16,212.12,212.12,212.12,212.12-95.16,212.12-212.12S339.09,10,222.12,10Z"/>
  </g>
</svg>