<?xml version="1.0" encoding="UTF-8"?>
<svg id="Layer_2" data-name="Layer 2" xmlns="http://www.w3.org/2000/svg" viewBox="0 0 369.3 262.28">
  <defs>
    <style>
      .cls-1 {
        fill: #f9f9f9;
      }

      .cls-1, .cls-2 {
        stroke-width: 0px;
      }

      .cls-2 {
        fill: #5044e5;
      }
    </style>
  </defs>
  <g id="Layer_1-2" data-name="Layer 1">
    <path class="cls-1" d="M184.65,262.28v-52.26h-92.56c-22,0-39.83-17.83-39.83-39.83v-77.14c0-22,17.83-39.83,39.83-39.83h62.09c7.03-22.66,22.94-41.44,43.64-52.26h-111.52C38.64.96,0,39.6,0,87.26v88.72c0,47.66,38.64,86.3,86.3,86.3h98.35Z"/>
    <path class="cls-2" d="M215.96,262.28h74.95c103-1.76,103.07-155.03,0-156.79,0,0-52.26,0-52.26,0-34.37-.56-34.33-51.71,0-52.27h104.53c14.43,0,26.13-11.7,26.13-26.13,0-14.43-11.7-26.13-26.13-26.13-66.8,2.21-179.69-21.44-182.93,78.4,0,43.29,35.1,78.39,78.39,78.39,23.57,2.74,77.68-12.12,78.4,26.13,0,14.44-11.69,26.14-26.13,26.14h-104.97c-13.43,0-24.32,11.6-24.32,25.92s10.89,25.92,24.32,25.92v.43c15.94,0,30.02,0,30.02,0Z"/>
  </g>
</svg>